# xmcd CD database file
#
# Track frame offsets:
#	150
#	12370
#	24118
#	36476
#	49916
#	60597
#	74639
#	87365
#	99874
#	111532
#	125211
#	138540
#
# Disc length: 2035 seconds
#
# Revision: 1
# Processed by: cddbd v1.5.2PL0 Copyright (c) Steve Scherf et al.
# Submitted via: CDex 1.70beta2
#
DISCID=ae07f10c
DTITLE=Zellberg Buam - Mit der Geig'n um die Welt
DYEAR=2006
DGENRE=Voksmusik
TTITLE0=Mit Der Geign Um Die Welt (Neu)
TTITLE1=Dort Wo Der Enzian Blüht (Neu)
TTITLE2=Clap Your Hands (Neu)
TTITLE3=Gau-Boarischer (Neu)
TTITLE4=Der Superman Mit Seiner Superhenn (Neu)
TTITLE5=Brüder Sind Gleich (Neu)
TTITLE6=Volksmusik and Trachtengwand (Neu)
TTITLE7=Rot-Weiß-Rot Und Himmelblau (Neu)
TTITLE8=Männer Aus Den Bergen (Neu)
TTITLE9=Sie Mag Die Berg Net Leid`n (Neu)
TTITLE10=Wir Machen Holi Holi Holiday (Neu)
TTITLE11=Geigenmusikant-Medley (Neu)
EXTD=YEAR: 2006
EXTT0=
EXTT1=
EXTT2=
EXTT3=
EXTT4=
EXTT5=
EXTT6=
EXTT7=
EXTT8=
EXTT9=
EXTT10=
EXTT11=
PLAYORDER=
